<svg xmlns="http://www.w3.org/2000/svg" version="1.1" xmlns:xlink="http://www.w3.org/1999/xlink" xmlns:svgjs="http://svgjs.dev/svgjs" width="1440" height="560" preserveAspectRatio="none" viewBox="0 0 1440 560">
    <g mask="url(&quot;#SvgjsMask2007&quot;)" fill="none">
        <rect width="1440" height="560" x="0" y="0" fill="url(&quot;#SvgjsRadialGradient2008&quot;)"></rect>
        <path d="M-65.79 372.73L-65.79 372.73" stroke="rgba(227, 227, 227, 1)" stroke-width="1.5"></path>
        <path d="M-65.79 372.73L89.13 363.3" stroke="rgba(227, 227, 227, 1)" stroke-width="1.5"></path>
        <path d="M-65.79 372.73L62.88 492.79" stroke="rgba(227, 227, 227, 1)" stroke-width="1.5"></path>
        <path d="M-73.7 556.79L-73.7 556.79" stroke="rgba(227, 227, 227, 1)" stroke-width="1.5"></path>
        <path d="M-73.7 556.79L-88.95 690.18" stroke="rgba(227, 227, 227, 1)" stroke-width="1.5"></path>
        <path d="M-73.7 556.79L62.88 492.79" stroke="rgba(227, 227, 227, 1)" stroke-width="1.5"></path>
        <path d="M-73.7 556.79L-65.79 372.73" stroke="rgba(227, 227, 227, 1)" stroke-width="1.5"></path>
        <path d="M-73.7 556.79L89.13 363.3" stroke="rgba(227, 227, 227, 1)" stroke-width="1.5"></path>
        <path d="M-88.95 690.18L-88.95 690.18" stroke="rgba(227, 227, 227, 1)" stroke-width="1.5"></path>
        <path d="M-88.95 690.18L62.88 492.79" stroke="rgba(227, 227, 227, 1)" stroke-width="1.5"></path>
        <path d="M-88.95 690.18L-65.79 372.73" stroke="rgba(227, 227, 227, 1)" stroke-width="1.5"></path>
        <path d="M-88.95 690.18L196.74 522.39" stroke="rgba(227, 227, 227, 1)" stroke-width="1.5"></path>
        <path d="M-88.95 690.18L261.58 707.78" stroke="rgba(227, 227, 227, 1)" stroke-width="1.5"></path>
        <path d="M89.13 363.3L89.13 363.3" stroke="rgba(227, 227, 227, 1)" stroke-width="1.5"></path>
        <path d="M89.13 363.3L62.88 492.79" stroke="rgba(227, 227, 227, 1)" stroke-width="1.5"></path>
        <path d="M89.13 363.3L253.34 348.86" stroke="rgba(227, 227, 227, 1)" stroke-width="1.5"></path>
        <path d="M89.13 363.3L196.74 522.39" stroke="rgba(227, 227, 227, 1)" stroke-width="1.5"></path>
        <path d="M89.13 363.3L405.39 351.3" stroke="rgba(227, 227, 227, 1)" stroke-width="1.5"></path>
        <path d="M62.88 492.79L62.88 492.79" stroke="rgba(227, 227, 227, 1)" stroke-width="1.5"></path>
        <path d="M62.88 492.79L196.74 522.39" stroke="rgba(227, 227, 227, 1)" stroke-width="1.5"></path>
        <path d="M253.34 348.86L253.34 348.86" stroke="rgba(227, 227, 227, 1)" stroke-width="1.5"></path>
        <path d="M253.34 348.86L405.39 351.3" stroke="rgba(227, 227, 227, 1)" stroke-width="1.5"></path>
        <path d="M253.34 348.86L196.74 522.39" stroke="rgba(227, 227, 227, 1)" stroke-width="1.5"></path>
        <path d="M253.34 348.86L393.86 492.07" stroke="rgba(227, 227, 227, 1)" stroke-width="1.5"></path>
        <path d="M253.34 348.86L62.88 492.79" stroke="rgba(227, 227, 227, 1)" stroke-width="1.5"></path>
        <path d="M253.34 348.86L507.45 344.18" stroke="rgba(227, 227, 227, 1)" stroke-width="1.5"></path>
        <path d="M196.74 522.39L196.74 522.39" stroke="rgba(227, 227, 227, 1)" stroke-width="1.5"></path>
        <path d="M196.74 522.39L261.58 707.78" stroke="rgba(227, 227, 227, 1)" stroke-width="1.5"></path>
        <path d="M196.74 522.39L393.86 492.07" stroke="rgba(227, 227, 227, 1)" stroke-width="1.5"></path>
        <path d="M196.74 522.39L411.31 653.89" stroke="rgba(227, 227, 227, 1)" stroke-width="1.5"></path>
        <path d="M261.58 707.78L261.58 707.78" stroke="rgba(227, 227, 227, 1)" stroke-width="1.5"></path>
        <path d="M261.58 707.78L411.31 653.89" stroke="rgba(227, 227, 227, 1)" stroke-width="1.5"></path>
        <path d="M261.58 707.78L393.86 492.07" stroke="rgba(227, 227, 227, 1)" stroke-width="1.5"></path>
        <path d="M261.58 707.78L521.01 684.57" stroke="rgba(227, 227, 227, 1)" stroke-width="1.5"></path>
        <path d="M405.39 351.3L405.39 351.3" stroke="rgba(227, 227, 227, 1)" stroke-width="1.5"></path>
        <path d="M405.39 351.3L507.45 344.18" stroke="rgba(227, 227, 227, 1)" stroke-width="1.5"></path>
        <path d="M405.39 351.3L393.86 492.07" stroke="rgba(227, 227, 227, 1)" stroke-width="1.5"></path>
        <path d="M393.86 492.07L393.86 492.07" stroke="rgba(227, 227, 227, 1)" stroke-width="1.5"></path>
        <path d="M411.31 653.89L411.31 653.89" stroke="rgba(227, 227, 227, 1)" stroke-width="1.5"></path>
        <path d="M411.31 653.89L521.01 684.57" stroke="rgba(227, 227, 227, 1)" stroke-width="1.5"></path>
        <path d="M411.31 653.89L393.86 492.07" stroke="rgba(227, 227, 227, 1)" stroke-width="1.5"></path>
        <path d="M507.45 344.18L507.45 344.18" stroke="rgba(227, 227, 227, 1)" stroke-width="1.5"></path>
        <path d="M507.45 344.18L652.92 348.79" stroke="rgba(227, 227, 227, 1)" stroke-width="1.5"></path>
        <path d="M537.7 518.91L537.7 518.91" stroke="rgba(227, 227, 227, 1)" stroke-width="1.5"></path>
        <path d="M537.7 518.91L650.71 491.07" stroke="rgba(227, 227, 227, 1)" stroke-width="1.5"></path>
        <path d="M537.7 518.91L393.86 492.07" stroke="rgba(227, 227, 227, 1)" stroke-width="1.5"></path>
        <path d="M537.7 518.91L521.01 684.57" stroke="rgba(227, 227, 227, 1)" stroke-width="1.5"></path>
        <path d="M537.7 518.91L507.45 344.18" stroke="rgba(227, 227, 227, 1)" stroke-width="1.5"></path>
        <path d="M537.7 518.91L411.31 653.89" stroke="rgba(227, 227, 227, 1)" stroke-width="1.5"></path>
        <path d="M521.01 684.57L521.01 684.57" stroke="rgba(227, 227, 227, 1)" stroke-width="1.5"></path>
        <path d="M521.01 684.57L393.86 492.07" stroke="rgba(227, 227, 227, 1)" stroke-width="1.5"></path>
        <path d="M521.01 684.57L650.71 491.07" stroke="rgba(227, 227, 227, 1)" stroke-width="1.5"></path>
        <path d="M521.01 684.57L507.45 344.18" stroke="rgba(227, 227, 227, 1)" stroke-width="1.5"></path>
        <path d="M687.27 206.46L687.27 206.46" stroke="rgba(227, 227, 227, 1)" stroke-width="1.5"></path>
        <path d="M687.27 206.46L818.48 187.68" stroke="rgba(227, 227, 227, 1)" stroke-width="1.5"></path>
        <path d="M687.27 206.46L652.92 348.79" stroke="rgba(227, 227, 227, 1)" stroke-width="1.5"></path>
        <path d="M652.92 348.79L652.92 348.79" stroke="rgba(227, 227, 227, 1)" stroke-width="1.5"></path>
        <path d="M652.92 348.79L650.71 491.07" stroke="rgba(227, 227, 227, 1)" stroke-width="1.5"></path>
        <path d="M650.71 491.07L650.71 491.07" stroke="rgba(227, 227, 227, 1)" stroke-width="1.5"></path>
        <path d="M650.71 491.07L816.84 494.52" stroke="rgba(227, 227, 227, 1)" stroke-width="1.5"></path>
        <path d="M833.01 99.91L833.01 99.91" stroke="rgba(227, 227, 227, 1)" stroke-width="1.5"></path>
        <path d="M833.01 99.91L818.48 187.68" stroke="rgba(227, 227, 227, 1)" stroke-width="1.5"></path>
        <path d="M833.01 99.91L1004.82 88.44" stroke="rgba(227, 227, 227, 1)" stroke-width="1.5"></path>
        <path d="M833.01 99.91L687.27 206.46" stroke="rgba(227, 227, 227, 1)" stroke-width="1.5"></path>
        <path d="M833.01 99.91L985.73 245.4" stroke="rgba(227, 227, 227, 1)" stroke-width="1.5"></path>
        <path d="M833.01 99.91L979.97 -68.33" stroke="rgba(227, 227, 227, 1)" stroke-width="1.5"></path>
        <path d="M833.01 99.91L981.02 342.56" stroke="rgba(227, 227, 227, 1)" stroke-width="1.5"></path>
        <path d="M818.48 187.68L818.48 187.68" stroke="rgba(227, 227, 227, 1)" stroke-width="1.5"></path>
        <path d="M818.48 187.68L985.73 245.4" stroke="rgba(227, 227, 227, 1)" stroke-width="1.5"></path>
        <path d="M839.69 388.58L839.69 388.58" stroke="rgba(227, 227, 227, 1)" stroke-width="1.5"></path>
        <path d="M839.69 388.58L816.84 494.52" stroke="rgba(227, 227, 227, 1)" stroke-width="1.5"></path>
        <path d="M839.69 388.58L981.02 342.56" stroke="rgba(227, 227, 227, 1)" stroke-width="1.5"></path>
        <path d="M816.84 494.52L816.84 494.52" stroke="rgba(227, 227, 227, 1)" stroke-width="1.5"></path>
        <path d="M816.84 494.52L969.66 494.81" stroke="rgba(227, 227, 227, 1)" stroke-width="1.5"></path>
        <path d="M816.84 494.52L861.56 705.83" stroke="rgba(227, 227, 227, 1)" stroke-width="1.5"></path>
        <path d="M861.56 705.83L861.56 705.83" stroke="rgba(227, 227, 227, 1)" stroke-width="1.5"></path>
        <path d="M861.56 705.83L987.24 675.57" stroke="rgba(227, 227, 227, 1)" stroke-width="1.5"></path>
        <path d="M979.97 -68.33L979.97 -68.33" stroke="rgba(227, 227, 227, 1)" stroke-width="1.5"></path>
        <path d="M979.97 -68.33L1004.82 88.44" stroke="rgba(227, 227, 227, 1)" stroke-width="1.5"></path>
        <path d="M979.97 -68.33L1161.7 -43.34" stroke="rgba(227, 227, 227, 1)" stroke-width="1.5"></path>
        <path d="M979.97 -68.33L1138.67 48.87" stroke="rgba(227, 227, 227, 1)" stroke-width="1.5"></path>
        <path d="M979.97 -68.33L1278.12 -61.76" stroke="rgba(227, 227, 227, 1)" stroke-width="1.5"></path>
        <path d="M979.97 -68.33L818.48 187.68" stroke="rgba(227, 227, 227, 1)" stroke-width="1.5"></path>
        <path d="M1004.82 88.44L1004.82 88.44" stroke="rgba(227, 227, 227, 1)" stroke-width="1.5"></path>
        <path d="M1004.82 88.44L1138.67 48.87" stroke="rgba(227, 227, 227, 1)" stroke-width="1.5"></path>
        <path d="M1004.82 88.44L985.73 245.4" stroke="rgba(227, 227, 227, 1)" stroke-width="1.5"></path>
        <path d="M985.73 245.4L985.73 245.4" stroke="rgba(227, 227, 227, 1)" stroke-width="1.5"></path>
        <path d="M985.73 245.4L981.02 342.56" stroke="rgba(227, 227, 227, 1)" stroke-width="1.5"></path>
        <path d="M985.73 245.4L1106.23 241.29" stroke="rgba(227, 227, 227, 1)" stroke-width="1.5"></path>
        <path d="M985.73 245.4L839.69 388.58" stroke="rgba(227, 227, 227, 1)" stroke-width="1.5"></path>
        <path d="M981.02 342.56L981.02 342.56" stroke="rgba(227, 227, 227, 1)" stroke-width="1.5"></path>
        <path d="M981.02 342.56L969.66 494.81" stroke="rgba(227, 227, 227, 1)" stroke-width="1.5"></path>
        <path d="M969.66 494.81L969.66 494.81" stroke="rgba(227, 227, 227, 1)" stroke-width="1.5"></path>
        <path d="M969.66 494.81L1129.44 500.12" stroke="rgba(227, 227, 227, 1)" stroke-width="1.5"></path>
        <path d="M969.66 494.81L839.69 388.58" stroke="rgba(227, 227, 227, 1)" stroke-width="1.5"></path>
        <path d="M969.66 494.81L987.24 675.57" stroke="rgba(227, 227, 227, 1)" stroke-width="1.5"></path>
        <path d="M969.66 494.81L1156.18 400.96" stroke="rgba(227, 227, 227, 1)" stroke-width="1.5"></path>
        <path d="M987.24 675.57L987.24 675.57" stroke="rgba(227, 227, 227, 1)" stroke-width="1.5"></path>
        <path d="M987.24 675.57L1137.98 701.99" stroke="rgba(227, 227, 227, 1)" stroke-width="1.5"></path>
        <path d="M1161.7 -43.34L1161.7 -43.34" stroke="rgba(227, 227, 227, 1)" stroke-width="1.5"></path>
        <path d="M1161.7 -43.34L1138.67 48.87" stroke="rgba(227, 227, 227, 1)" stroke-width="1.5"></path>
        <path d="M1161.7 -43.34L1278.12 -61.76" stroke="rgba(227, 227, 227, 1)" stroke-width="1.5"></path>
        <path d="M1161.7 -43.34L1299.58 53.45" stroke="rgba(227, 227, 227, 1)" stroke-width="1.5"></path>
        <path d="M1161.7 -43.34L1004.82 88.44" stroke="rgba(227, 227, 227, 1)" stroke-width="1.5"></path>
        <path d="M1138.67 48.87L1138.67 48.87" stroke="rgba(227, 227, 227, 1)" stroke-width="1.5"></path>
        <path d="M1138.67 48.87L1299.58 53.45" stroke="rgba(227, 227, 227, 1)" stroke-width="1.5"></path>
        <path d="M1138.67 48.87L1278.12 -61.76" stroke="rgba(227, 227, 227, 1)" stroke-width="1.5"></path>
        <path d="M1106.23 241.29L1106.23 241.29" stroke="rgba(227, 227, 227, 1)" stroke-width="1.5"></path>
        <path d="M1106.23 241.29L1265.37 239.87" stroke="rgba(227, 227, 227, 1)" stroke-width="1.5"></path>
        <path d="M1106.23 241.29L981.02 342.56" stroke="rgba(227, 227, 227, 1)" stroke-width="1.5"></path>
        <path d="M1106.23 241.29L1156.18 400.96" stroke="rgba(227, 227, 227, 1)" stroke-width="1.5"></path>
        <path d="M1106.23 241.29L1245.05 339.35" stroke="rgba(227, 227, 227, 1)" stroke-width="1.5"></path>
        <path d="M1156.18 400.96L1156.18 400.96" stroke="rgba(227, 227, 227, 1)" stroke-width="1.5"></path>
        <path d="M1156.18 400.96L1129.44 500.12" stroke="rgba(227, 227, 227, 1)" stroke-width="1.5"></path>
        <path d="M1156.18 400.96L1245.05 339.35" stroke="rgba(227, 227, 227, 1)" stroke-width="1.5"></path>
        <path d="M1156.18 400.96L981.02 342.56" stroke="rgba(227, 227, 227, 1)" stroke-width="1.5"></path>
        <path d="M1156.18 400.96L1262.74 555.72" stroke="rgba(227, 227, 227, 1)" stroke-width="1.5"></path>
        <path d="M1129.44 500.12L1129.44 500.12" stroke="rgba(227, 227, 227, 1)" stroke-width="1.5"></path>
        <path d="M1129.44 500.12L1262.74 555.72" stroke="rgba(227, 227, 227, 1)" stroke-width="1.5"></path>
        <path d="M1129.44 500.12L1245.05 339.35" stroke="rgba(227, 227, 227, 1)" stroke-width="1.5"></path>
        <path d="M1137.98 701.99L1137.98 701.99" stroke="rgba(227, 227, 227, 1)" stroke-width="1.5"></path>
        <path d="M1137.98 701.99L1291.29 686.59" stroke="rgba(227, 227, 227, 1)" stroke-width="1.5"></path>
        <path d="M1137.98 701.99L1262.74 555.72" stroke="rgba(227, 227, 227, 1)" stroke-width="1.5"></path>
        <path d="M1137.98 701.99L1129.44 500.12" stroke="rgba(227, 227, 227, 1)" stroke-width="1.5"></path>
        <path d="M1278.12 -61.76L1278.12 -61.76" stroke="rgba(227, 227, 227, 1)" stroke-width="1.5"></path>
        <path d="M1278.12 -61.76L1299.58 53.45" stroke="rgba(227, 227, 227, 1)" stroke-width="1.5"></path>
        <path d="M1299.58 53.45L1299.58 53.45" stroke="rgba(227, 227, 227, 1)" stroke-width="1.5"></path>
        <path d="M1299.58 53.45L1415.91 98.47" stroke="rgba(227, 227, 227, 1)" stroke-width="1.5"></path>
        <path d="M1265.37 239.87L1265.37 239.87" stroke="rgba(227, 227, 227, 1)" stroke-width="1.5"></path>
        <path d="M1265.37 239.87L1245.05 339.35" stroke="rgba(227, 227, 227, 1)" stroke-width="1.5"></path>
        <path d="M1265.37 239.87L1424.22 235.97" stroke="rgba(227, 227, 227, 1)" stroke-width="1.5"></path>
        <path d="M1265.37 239.87L1299.58 53.45" stroke="rgba(227, 227, 227, 1)" stroke-width="1.5"></path>
        <path d="M1265.37 239.87L1426.92 340.16" stroke="rgba(227, 227, 227, 1)" stroke-width="1.5"></path>
        <path d="M1245.05 339.35L1245.05 339.35" stroke="rgba(227, 227, 227, 1)" stroke-width="1.5"></path>
        <path d="M1245.05 339.35L1426.92 340.16" stroke="rgba(227, 227, 227, 1)" stroke-width="1.5"></path>
        <path d="M1262.74 555.72L1262.74 555.72" stroke="rgba(227, 227, 227, 1)" stroke-width="1.5"></path>
        <path d="M1262.74 555.72L1291.29 686.59" stroke="rgba(227, 227, 227, 1)" stroke-width="1.5"></path>
        <path d="M1262.74 555.72L1447.46 526.78" stroke="rgba(227, 227, 227, 1)" stroke-width="1.5"></path>
        <path d="M1291.29 686.59L1291.29 686.59" stroke="rgba(227, 227, 227, 1)" stroke-width="1.5"></path>
        <path d="M1291.29 686.59L1411.85 711.18" stroke="rgba(227, 227, 227, 1)" stroke-width="1.5"></path>
        <path d="M1291.29 686.59L1447.46 526.78" stroke="rgba(227, 227, 227, 1)" stroke-width="1.5"></path>
        <path d="M1456.12 -89.65L1456.12 -89.65" stroke="rgba(227, 227, 227, 1)" stroke-width="1.5"></path>
        <path d="M1456.12 -89.65L1278.12 -61.76" stroke="rgba(227, 227, 227, 1)" stroke-width="1.5"></path>
        <path d="M1456.12 -89.65L1415.91 98.47" stroke="rgba(227, 227, 227, 1)" stroke-width="1.5"></path>
        <path d="M1456.12 -89.65L1565.95 70.13" stroke="rgba(227, 227, 227, 1)" stroke-width="1.5"></path>
        <path d="M1456.12 -89.65L1299.58 53.45" stroke="rgba(227, 227, 227, 1)" stroke-width="1.5"></path>
        <path d="M1415.91 98.47L1415.91 98.47" stroke="rgba(227, 227, 227, 1)" stroke-width="1.5"></path>
        <path d="M1415.91 98.47L1424.22 235.97" stroke="rgba(227, 227, 227, 1)" stroke-width="1.5"></path>
        <path d="M1415.91 98.47L1565.95 70.13" stroke="rgba(227, 227, 227, 1)" stroke-width="1.5"></path>
        <path d="M1415.91 98.47L1541.65 195.87" stroke="rgba(227, 227, 227, 1)" stroke-width="1.5"></path>
        <path d="M1415.91 98.47L1265.37 239.87" stroke="rgba(227, 227, 227, 1)" stroke-width="1.5"></path>
        <path d="M1424.22 235.97L1424.22 235.97" stroke="rgba(227, 227, 227, 1)" stroke-width="1.5"></path>
        <path d="M1424.22 235.97L1426.92 340.16" stroke="rgba(227, 227, 227, 1)" stroke-width="1.5"></path>
        <path d="M1424.22 235.97L1541.65 195.87" stroke="rgba(227, 227, 227, 1)" stroke-width="1.5"></path>
        <path d="M1424.22 235.97L1553.8 357.4" stroke="rgba(227, 227, 227, 1)" stroke-width="1.5"></path>
        <path d="M1426.92 340.16L1426.92 340.16" stroke="rgba(227, 227, 227, 1)" stroke-width="1.5"></path>
        <path d="M1426.92 340.16L1553.8 357.4" stroke="rgba(227, 227, 227, 1)" stroke-width="1.5"></path>
        <path d="M1426.92 340.16L1541.65 195.87" stroke="rgba(227, 227, 227, 1)" stroke-width="1.5"></path>
        <path d="M1426.92 340.16L1447.46 526.78" stroke="rgba(227, 227, 227, 1)" stroke-width="1.5"></path>
        <path d="M1447.46 526.78L1447.46 526.78" stroke="rgba(227, 227, 227, 1)" stroke-width="1.5"></path>
        <path d="M1447.46 526.78L1588.18 537.85" stroke="rgba(227, 227, 227, 1)" stroke-width="1.5"></path>
        <path d="M1447.46 526.78L1572.01 644.86" stroke="rgba(227, 227, 227, 1)" stroke-width="1.5"></path>
        <path d="M1411.85 711.18L1411.85 711.18" stroke="rgba(227, 227, 227, 1)" stroke-width="1.5"></path>
        <path d="M1411.85 711.18L1572.01 644.86" stroke="rgba(227, 227, 227, 1)" stroke-width="1.5"></path>
        <path d="M1411.85 711.18L1447.46 526.78" stroke="rgba(227, 227, 227, 1)" stroke-width="1.5"></path>
        <path d="M1411.85 711.18L1262.74 555.72" stroke="rgba(227, 227, 227, 1)" stroke-width="1.5"></path>
        <path d="M1565.95 70.13L1565.95 70.13" stroke="rgba(227, 227, 227, 1)" stroke-width="1.5"></path>
        <path d="M1565.95 70.13L1541.65 195.87" stroke="rgba(227, 227, 227, 1)" stroke-width="1.5"></path>
        <path d="M1565.95 70.13L1424.22 235.97" stroke="rgba(227, 227, 227, 1)" stroke-width="1.5"></path>
        <path d="M1565.95 70.13L1299.58 53.45" stroke="rgba(227, 227, 227, 1)" stroke-width="1.5"></path>
        <path d="M1541.65 195.87L1541.65 195.87" stroke="rgba(227, 227, 227, 1)" stroke-width="1.5"></path>
        <path d="M1541.65 195.87L1553.8 357.4" stroke="rgba(227, 227, 227, 1)" stroke-width="1.5"></path>
        <path d="M1553.8 357.4L1553.8 357.4" stroke="rgba(227, 227, 227, 1)" stroke-width="1.5"></path>
        <path d="M1588.18 537.85L1588.18 537.85" stroke="rgba(227, 227, 227, 1)" stroke-width="1.5"></path>
        <path d="M1588.18 537.85L1572.01 644.86" stroke="rgba(227, 227, 227, 1)" stroke-width="1.5"></path>
        <path d="M1588.18 537.85L1553.8 357.4" stroke="rgba(227, 227, 227, 1)" stroke-width="1.5"></path>
        <path d="M1588.18 537.85L1411.85 711.18" stroke="rgba(227, 227, 227, 1)" stroke-width="1.5"></path>
        <path d="M1588.18 537.85L1426.92 340.16" stroke="rgba(227, 227, 227, 1)" stroke-width="1.5"></path>
        <path d="M1588.18 537.85L1262.74 555.72" stroke="rgba(227, 227, 227, 1)" stroke-width="1.5"></path>
        <path d="M1572.01 644.86L1572.01 644.86" stroke="rgba(227, 227, 227, 1)" stroke-width="1.5"></path>
        <path d="M1572.01 644.86L1291.29 686.59" stroke="rgba(227, 227, 227, 1)" stroke-width="1.5"></path>
        <path d="M1572.01 644.86L1553.8 357.4" stroke="rgba(227, 227, 227, 1)" stroke-width="1.5"></path>
        <circle r="5" cx="-65.79" cy="372.73" fill="rgba(227, 227, 227, 1)"></circle>
        <circle r="5" cx="-73.7" cy="556.79" fill="rgba(227, 227, 227, 1)"></circle>
        <circle r="5" cx="-88.95" cy="690.18" fill="rgba(227, 227, 227, 1)"></circle>
        <circle r="5" cx="89.13" cy="363.3" fill="rgba(227, 227, 227, 1)"></circle>
        <circle r="5" cx="62.88" cy="492.79" fill="rgba(227, 227, 227, 1)"></circle>
        <circle r="5" cx="253.34" cy="348.86" fill="rgba(227, 227, 227, 1)"></circle>
        <circle r="5" cx="196.74" cy="522.39" fill="rgba(227, 227, 227, 1)"></circle>
        <circle r="5" cx="261.58" cy="707.78" fill="rgba(227, 227, 227, 1)"></circle>
        <circle r="5" cx="405.39" cy="351.3" fill="rgba(227, 227, 227, 1)"></circle>
        <circle r="5" cx="393.86" cy="492.07" fill="rgba(227, 227, 227, 1)"></circle>
        <circle r="5" cx="411.31" cy="653.89" fill="rgba(227, 227, 227, 1)"></circle>
        <circle r="5" cx="507.45" cy="344.18" fill="rgba(227, 227, 227, 1)"></circle>
        <circle r="5" cx="537.7" cy="518.91" fill="rgba(227, 227, 227, 1)"></circle>
        <circle r="5" cx="521.01" cy="684.57" fill="rgba(227, 227, 227, 1)"></circle>
        <circle r="5" cx="687.27" cy="206.46" fill="rgba(227, 227, 227, 1)"></circle>
        <circle r="5" cx="652.92" cy="348.79" fill="rgba(227, 227, 227, 1)"></circle>
        <circle r="5" cx="650.71" cy="491.07" fill="rgba(227, 227, 227, 1)"></circle>
        <circle r="5" cx="833.01" cy="99.91" fill="rgba(227, 227, 227, 1)"></circle>
        <circle r="5" cx="818.48" cy="187.68" fill="rgba(227, 227, 227, 1)"></circle>
        <circle r="5" cx="839.69" cy="388.58" fill="rgba(227, 227, 227, 1)"></circle>
        <circle r="5" cx="816.84" cy="494.52" fill="rgba(227, 227, 227, 1)"></circle>
        <circle r="5" cx="861.56" cy="705.83" fill="rgba(227, 227, 227, 1)"></circle>
        <circle r="5" cx="979.97" cy="-68.33" fill="rgba(227, 227, 227, 1)"></circle>
        <circle r="5" cx="1004.82" cy="88.44" fill="rgba(227, 227, 227, 1)"></circle>
        <circle r="5" cx="985.73" cy="245.4" fill="rgba(227, 227, 227, 1)"></circle>
        <circle r="5" cx="981.02" cy="342.56" fill="rgba(227, 227, 227, 1)"></circle>
        <circle r="5" cx="969.66" cy="494.81" fill="rgba(227, 227, 227, 1)"></circle>
        <circle r="5" cx="987.24" cy="675.57" fill="rgba(227, 227, 227, 1)"></circle>
        <circle r="5" cx="1161.7" cy="-43.34" fill="rgba(227, 227, 227, 1)"></circle>
        <circle r="5" cx="1138.67" cy="48.87" fill="rgba(227, 227, 227, 1)"></circle>
        <circle r="5" cx="1106.23" cy="241.29" fill="rgba(227, 227, 227, 1)"></circle>
        <circle r="5" cx="1156.18" cy="400.96" fill="rgba(227, 227, 227, 1)"></circle>
        <circle r="5" cx="1129.44" cy="500.12" fill="rgba(227, 227, 227, 1)"></circle>
        <circle r="5" cx="1137.98" cy="701.99" fill="rgba(227, 227, 227, 1)"></circle>
        <circle r="5" cx="1278.12" cy="-61.76" fill="rgba(227, 227, 227, 1)"></circle>
        <circle r="5" cx="1299.58" cy="53.45" fill="rgba(227, 227, 227, 1)"></circle>
        <circle r="5" cx="1265.37" cy="239.87" fill="rgba(227, 227, 227, 1)"></circle>
        <circle r="5" cx="1245.05" cy="339.35" fill="rgba(227, 227, 227, 1)"></circle>
        <circle r="5" cx="1262.74" cy="555.72" fill="rgba(227, 227, 227, 1)"></circle>
        <circle r="5" cx="1291.29" cy="686.59" fill="rgba(227, 227, 227, 1)"></circle>
        <circle r="5" cx="1456.12" cy="-89.65" fill="rgba(227, 227, 227, 1)"></circle>
        <circle r="5" cx="1415.91" cy="98.47" fill="rgba(227, 227, 227, 1)"></circle>
        <circle r="5" cx="1424.22" cy="235.97" fill="rgba(227, 227, 227, 1)"></circle>
        <circle r="5" cx="1426.92" cy="340.16" fill="rgba(227, 227, 227, 1)"></circle>
        <circle r="5" cx="1447.46" cy="526.78" fill="rgba(227, 227, 227, 1)"></circle>
        <circle r="5" cx="1411.85" cy="711.18" fill="rgba(227, 227, 227, 1)"></circle>
        <circle r="5" cx="1565.95" cy="70.13" fill="rgba(227, 227, 227, 1)"></circle>
        <circle r="5" cx="1541.65" cy="195.87" fill="rgba(227, 227, 227, 1)"></circle>
        <circle r="5" cx="1553.8" cy="357.4" fill="rgba(227, 227, 227, 1)"></circle>
        <circle r="5" cx="1588.18" cy="537.85" fill="rgba(227, 227, 227, 1)"></circle>
        <circle r="5" cx="1572.01" cy="644.86" fill="rgba(227, 227, 227, 1)"></circle>
        <path d="M-71.38 517.51L-71.38 517.51" stroke="hsl(228.5, 77.2%, 51.5%)" stroke-width="1.5"></path>
        <path d="M-71.38 517.51L108.09 515.98" stroke="hsl(228.5, 77.2%, 51.5%)" stroke-width="1.5"></path>
        <path d="M-71.38 517.51L110.7 647.46" stroke="hsl(228.5, 77.2%, 51.5%)" stroke-width="1.5"></path>
        <path d="M-71.38 517.51L231.67 518.27" stroke="hsl(228.5, 77.2%, 51.5%)" stroke-width="1.5"></path>
        <path d="M-71.38 517.51L239.51 641.55" stroke="hsl(228.5, 77.2%, 51.5%)" stroke-width="1.5"></path>
        <path d="M-71.38 517.51L401.07 688.17" stroke="hsl(228.5, 77.2%, 51.5%)" stroke-width="1.5"></path>
        <path d="M682.5 493.1L682.5 493.1" stroke="hsl(228.5, 77.2%, 51.5%)" stroke-width="1.5"></path>
        <path d="M682.5 493.1L800.14 508.31" stroke="hsl(228.5, 77.2%, 51.5%)" stroke-width="1.5"></path>
        <path d="M682.5 493.1L543.96 546.92" stroke="hsl(228.5, 77.2%, 51.5%)" stroke-width="1.5"></path>
        <path d="M682.5 493.1L703.18 678.99" stroke="hsl(228.5, 77.2%, 51.5%)" stroke-width="1.5"></path>
        <path d="M682.5 493.1L526.27 645.77" stroke="hsl(228.5, 77.2%, 51.5%)" stroke-width="1.5"></path>
        <path d="M682.5 493.1L837.01 338.11" stroke="hsl(228.5, 77.2%, 51.5%)" stroke-width="1.5"></path>
        <path d="M682.5 493.1L849.83 682.62" stroke="hsl(228.5, 77.2%, 51.5%)" stroke-width="1.5"></path>
        <path d="M969.69 501.11L969.69 501.11" stroke="hsl(228.5, 77.2%, 51.5%)" stroke-width="1.5"></path>
        <path d="M969.69 501.11L995.68 396.69" stroke="hsl(228.5, 77.2%, 51.5%)" stroke-width="1.5"></path>
        <path d="M1246.42 -90.31L1246.42 -90.31" stroke="hsl(228.5, 77.2%, 51.5%)" stroke-width="1.5"></path>
        <path d="M1246.42 -90.31L1158.05 -41.8" stroke="hsl(228.5, 77.2%, 51.5%)" stroke-width="1.5"></path>
        <path d="M1246.42 -90.31L1239.04 63.81" stroke="hsl(228.5, 77.2%, 51.5%)" stroke-width="1.5"></path>
        <path d="M1246.42 -90.31L1439.44 -69.61" stroke="hsl(228.5, 77.2%, 51.5%)" stroke-width="1.5"></path>
        <path d="M1239.04 63.81L1239.04 63.81" stroke="hsl(228.5, 77.2%, 51.5%)" stroke-width="1.5"></path>
        <path d="M1239.04 63.81L1158.05 -41.8" stroke="hsl(228.5, 77.2%, 51.5%)" stroke-width="1.5"></path>
        <path d="M1239.04 63.81L1278.87 203.78" stroke="hsl(228.5, 77.2%, 51.5%)" stroke-width="1.5"></path>
        <path d="M1275.95 701.05L1275.95 701.05" stroke="hsl(228.5, 77.2%, 51.5%)" stroke-width="1.5"></path>
        <path d="M1275.95 701.05L1154.26 679.92" stroke="hsl(228.5, 77.2%, 51.5%)" stroke-width="1.5"></path>
        <path d="M1275.95 701.05L1429.45 491.03" stroke="hsl(228.5, 77.2%, 51.5%)" stroke-width="1.5"></path>
        <path d="M1275.95 701.05L1106.42 500.29" stroke="hsl(228.5, 77.2%, 51.5%)" stroke-width="1.5"></path>
        <path d="M1439.44 -69.61L1439.44 -69.61" stroke="hsl(228.5, 77.2%, 51.5%)" stroke-width="1.5"></path>
        <path d="M1439.44 -69.61L1568.37 -109.12" stroke="hsl(228.5, 77.2%, 51.5%)" stroke-width="1.5"></path>
        <path d="M1439.44 -69.61L1597.17 74.35" stroke="hsl(228.5, 77.2%, 51.5%)" stroke-width="1.5"></path>
        <path d="M1439.44 -69.61L1239.04 63.81" stroke="hsl(228.5, 77.2%, 51.5%)" stroke-width="1.5"></path>
        <path d="M1439.44 -69.61L1158.05 -41.8" stroke="hsl(228.5, 77.2%, 51.5%)" stroke-width="1.5"></path>
        <path d="M108.09 515.98L108.09 515.98" stroke="hsl(228.5, 77.2%, 51.5%)" stroke-width="1.5"></path>
        <path d="M108.09 515.98L231.67 518.27" stroke="hsl(228.5, 77.2%, 51.5%)" stroke-width="1.5"></path>
        <path d="M108.09 515.98L110.7 647.46" stroke="hsl(228.5, 77.2%, 51.5%)" stroke-width="1.5"></path>
        <path d="M110.7 647.46L110.7 647.46" stroke="hsl(228.5, 77.2%, 51.5%)" stroke-width="1.5"></path>
        <path d="M110.7 647.46L239.51 641.55" stroke="hsl(228.5, 77.2%, 51.5%)" stroke-width="1.5"></path>
        <path d="M231.67 518.27L231.67 518.27" stroke="hsl(228.5, 77.2%, 51.5%)" stroke-width="1.5"></path>
        <path d="M231.67 518.27L239.51 641.55" stroke="hsl(228.5, 77.2%, 51.5%)" stroke-width="1.5"></path>
        <path d="M231.67 518.27L110.7 647.46" stroke="hsl(228.5, 77.2%, 51.5%)" stroke-width="1.5"></path>
        <path d="M231.67 518.27L401.07 688.17" stroke="hsl(228.5, 77.2%, 51.5%)" stroke-width="1.5"></path>
        <path d="M231.67 518.27L543.96 546.92" stroke="hsl(228.5, 77.2%, 51.5%)" stroke-width="1.5"></path>
        <path d="M239.51 641.55L239.51 641.55" stroke="hsl(228.5, 77.2%, 51.5%)" stroke-width="1.5"></path>
        <path d="M239.51 641.55L401.07 688.17" stroke="hsl(228.5, 77.2%, 51.5%)" stroke-width="1.5"></path>
        <path d="M401.07 688.17L401.07 688.17" stroke="hsl(228.5, 77.2%, 51.5%)" stroke-width="1.5"></path>
        <path d="M401.07 688.17L526.27 645.77" stroke="hsl(228.5, 77.2%, 51.5%)" stroke-width="1.5"></path>
        <path d="M401.07 688.17L543.96 546.92" stroke="hsl(228.5, 77.2%, 51.5%)" stroke-width="1.5"></path>
        <path d="M543.96 546.92L543.96 546.92" stroke="hsl(228.5, 77.2%, 51.5%)" stroke-width="1.5"></path>
        <path d="M543.96 546.92L526.27 645.77" stroke="hsl(228.5, 77.2%, 51.5%)" stroke-width="1.5"></path>
        <path d="M543.96 546.92L703.18 678.99" stroke="hsl(228.5, 77.2%, 51.5%)" stroke-width="1.5"></path>
        <path d="M543.96 546.92L800.14 508.31" stroke="hsl(228.5, 77.2%, 51.5%)" stroke-width="1.5"></path>
        <path d="M526.27 645.77L526.27 645.77" stroke="hsl(228.5, 77.2%, 51.5%)" stroke-width="1.5"></path>
        <path d="M703.18 678.99L703.18 678.99" stroke="hsl(228.5, 77.2%, 51.5%)" stroke-width="1.5"></path>
        <path d="M703.18 678.99L849.83 682.62" stroke="hsl(228.5, 77.2%, 51.5%)" stroke-width="1.5"></path>
        <path d="M703.18 678.99L526.27 645.77" stroke="hsl(228.5, 77.2%, 51.5%)" stroke-width="1.5"></path>
        <path d="M703.18 678.99L800.14 508.31" stroke="hsl(228.5, 77.2%, 51.5%)" stroke-width="1.5"></path>
        <path d="M703.18 678.99L966.05 705.44" stroke="hsl(228.5, 77.2%, 51.5%)" stroke-width="1.5"></path>
        <path d="M837.01 338.11L837.01 338.11" stroke="hsl(228.5, 77.2%, 51.5%)" stroke-width="1.5"></path>
        <path d="M837.01 338.11L995.68 396.69" stroke="hsl(228.5, 77.2%, 51.5%)" stroke-width="1.5"></path>
        <path d="M837.01 338.11L800.14 508.31" stroke="hsl(228.5, 77.2%, 51.5%)" stroke-width="1.5"></path>
        <path d="M837.01 338.11L969.69 501.11" stroke="hsl(228.5, 77.2%, 51.5%)" stroke-width="1.5"></path>
        <path d="M800.14 508.31L800.14 508.31" stroke="hsl(228.5, 77.2%, 51.5%)" stroke-width="1.5"></path>
        <path d="M800.14 508.31L969.69 501.11" stroke="hsl(228.5, 77.2%, 51.5%)" stroke-width="1.5"></path>
        <path d="M800.14 508.31L849.83 682.62" stroke="hsl(228.5, 77.2%, 51.5%)" stroke-width="1.5"></path>
        <path d="M849.83 682.62L849.83 682.62" stroke="hsl(228.5, 77.2%, 51.5%)" stroke-width="1.5"></path>
        <path d="M849.83 682.62L966.05 705.44" stroke="hsl(228.5, 77.2%, 51.5%)" stroke-width="1.5"></path>
        <path d="M995.68 396.69L995.68 396.69" stroke="hsl(228.5, 77.2%, 51.5%)" stroke-width="1.5"></path>
        <path d="M995.68 396.69L1111.81 408.78" stroke="hsl(228.5, 77.2%, 51.5%)" stroke-width="1.5"></path>
        <path d="M966.05 705.44L966.05 705.44" stroke="hsl(228.5, 77.2%, 51.5%)" stroke-width="1.5"></path>
        <path d="M966.05 705.44L1154.26 679.92" stroke="hsl(228.5, 77.2%, 51.5%)" stroke-width="1.5"></path>
        <path d="M1158.05 -41.8L1158.05 -41.8" stroke="hsl(228.5, 77.2%, 51.5%)" stroke-width="1.5"></path>
        <path d="M1158.05 -41.8L1278.87 203.78" stroke="hsl(228.5, 77.2%, 51.5%)" stroke-width="1.5"></path>
        <path d="M1158.05 -41.8L1418.66 236.03" stroke="hsl(228.5, 77.2%, 51.5%)" stroke-width="1.5"></path>
        <path d="M1158.05 -41.8L1256.11 357.49" stroke="hsl(228.5, 77.2%, 51.5%)" stroke-width="1.5"></path>
        <path d="M1111.81 408.78L1111.81 408.78" stroke="hsl(228.5, 77.2%, 51.5%)" stroke-width="1.5"></path>
        <path d="M1111.81 408.78L1106.42 500.29" stroke="hsl(228.5, 77.2%, 51.5%)" stroke-width="1.5"></path>
        <path d="M1111.81 408.78L1256.11 357.49" stroke="hsl(228.5, 77.2%, 51.5%)" stroke-width="1.5"></path>
        <path d="M1106.42 500.29L1106.42 500.29" stroke="hsl(228.5, 77.2%, 51.5%)" stroke-width="1.5"></path>
        <path d="M1106.42 500.29L969.69 501.11" stroke="hsl(228.5, 77.2%, 51.5%)" stroke-width="1.5"></path>
        <path d="M1106.42 500.29L995.68 396.69" stroke="hsl(228.5, 77.2%, 51.5%)" stroke-width="1.5"></path>
        <path d="M1106.42 500.29L1154.26 679.92" stroke="hsl(228.5, 77.2%, 51.5%)" stroke-width="1.5"></path>
        <path d="M1106.42 500.29L1256.11 357.49" stroke="hsl(228.5, 77.2%, 51.5%)" stroke-width="1.5"></path>
        <path d="M1106.42 500.29L966.05 705.44" stroke="hsl(228.5, 77.2%, 51.5%)" stroke-width="1.5"></path>
        <path d="M1154.26 679.92L1154.26 679.92" stroke="hsl(228.5, 77.2%, 51.5%)" stroke-width="1.5"></path>
        <path d="M1278.87 203.78L1278.87 203.78" stroke="hsl(228.5, 77.2%, 51.5%)" stroke-width="1.5"></path>
        <path d="M1278.87 203.78L1418.66 236.03" stroke="hsl(228.5, 77.2%, 51.5%)" stroke-width="1.5"></path>
        <path d="M1278.87 203.78L1256.11 357.49" stroke="hsl(228.5, 77.2%, 51.5%)" stroke-width="1.5"></path>
        <path d="M1256.11 357.49L1256.11 357.49" stroke="hsl(228.5, 77.2%, 51.5%)" stroke-width="1.5"></path>
        <path d="M1418.66 236.03L1418.66 236.03" stroke="hsl(228.5, 77.2%, 51.5%)" stroke-width="1.5"></path>
        <path d="M1418.66 236.03L1554.17 202.69" stroke="hsl(228.5, 77.2%, 51.5%)" stroke-width="1.5"></path>
        <path d="M1418.66 236.03L1456.08 408.25" stroke="hsl(228.5, 77.2%, 51.5%)" stroke-width="1.5"></path>
        <path d="M1418.66 236.03L1568.4 348.22" stroke="hsl(228.5, 77.2%, 51.5%)" stroke-width="1.5"></path>
        <path d="M1418.66 236.03L1256.11 357.49" stroke="hsl(228.5, 77.2%, 51.5%)" stroke-width="1.5"></path>
        <path d="M1456.08 408.25L1456.08 408.25" stroke="hsl(228.5, 77.2%, 51.5%)" stroke-width="1.5"></path>
        <path d="M1456.08 408.25L1429.45 491.03" stroke="hsl(228.5, 77.2%, 51.5%)" stroke-width="1.5"></path>
        <path d="M1456.08 408.25L1568.4 348.22" stroke="hsl(228.5, 77.2%, 51.5%)" stroke-width="1.5"></path>
        <path d="M1456.08 408.25L1592.67 508.63" stroke="hsl(228.5, 77.2%, 51.5%)" stroke-width="1.5"></path>
        <path d="M1429.45 491.03L1429.45 491.03" stroke="hsl(228.5, 77.2%, 51.5%)" stroke-width="1.5"></path>
        <path d="M1568.37 -109.12L1568.37 -109.12" stroke="hsl(228.5, 77.2%, 51.5%)" stroke-width="1.5"></path>
        <path d="M1568.37 -109.12L1597.17 74.35" stroke="hsl(228.5, 77.2%, 51.5%)" stroke-width="1.5"></path>
        <path d="M1568.37 -109.12L1554.17 202.69" stroke="hsl(228.5, 77.2%, 51.5%)" stroke-width="1.5"></path>
        <path d="M1568.37 -109.12L1246.42 -90.31" stroke="hsl(228.5, 77.2%, 51.5%)" stroke-width="1.5"></path>
        <path d="M1568.37 -109.12L1239.04 63.81" stroke="hsl(228.5, 77.2%, 51.5%)" stroke-width="1.5"></path>
        <path d="M1597.17 74.35L1597.17 74.35" stroke="hsl(228.5, 77.2%, 51.5%)" stroke-width="1.5"></path>
        <path d="M1597.17 74.35L1554.17 202.69" stroke="hsl(228.5, 77.2%, 51.5%)" stroke-width="1.5"></path>
        <path d="M1597.17 74.35L1418.66 236.03" stroke="hsl(228.5, 77.2%, 51.5%)" stroke-width="1.5"></path>
        <path d="M1597.17 74.35L1568.4 348.22" stroke="hsl(228.5, 77.2%, 51.5%)" stroke-width="1.5"></path>
        <path d="M1554.17 202.69L1554.17 202.69" stroke="hsl(228.5, 77.2%, 51.5%)" stroke-width="1.5"></path>
        <path d="M1554.17 202.69L1568.4 348.22" stroke="hsl(228.5, 77.2%, 51.5%)" stroke-width="1.5"></path>
        <path d="M1568.4 348.22L1568.4 348.22" stroke="hsl(228.5, 77.2%, 51.5%)" stroke-width="1.5"></path>
        <path d="M1592.67 508.63L1592.67 508.63" stroke="hsl(228.5, 77.2%, 51.5%)" stroke-width="1.5"></path>
        <path d="M1592.67 508.63L1558.86 645.6" stroke="hsl(228.5, 77.2%, 51.5%)" stroke-width="1.5"></path>
        <path d="M1592.67 508.63L1568.4 348.22" stroke="hsl(228.5, 77.2%, 51.5%)" stroke-width="1.5"></path>
        <path d="M1592.67 508.63L1429.45 491.03" stroke="hsl(228.5, 77.2%, 51.5%)" stroke-width="1.5"></path>
        <path d="M1558.86 645.6L1558.86 645.6" stroke="hsl(228.5, 77.2%, 51.5%)" stroke-width="1.5"></path>
        <path d="M1558.86 645.6L1429.45 491.03" stroke="hsl(228.5, 77.2%, 51.5%)" stroke-width="1.5"></path>
        <path d="M1558.86 645.6L1456.08 408.25" stroke="hsl(228.5, 77.2%, 51.5%)" stroke-width="1.5"></path>
        <path d="M1558.86 645.6L1275.95 701.05" stroke="hsl(228.5, 77.2%, 51.5%)" stroke-width="1.5"></path>
        <path d="M1558.86 645.6L1568.4 348.22" stroke="hsl(228.5, 77.2%, 51.5%)" stroke-width="1.5"></path>
        <circle r="25" cx="-71.38" cy="517.51" fill="url(&quot;#SvgjsRadialGradient2009&quot;)"></circle>
        <circle r="25" cx="682.5" cy="493.1" fill="url(&quot;#SvgjsRadialGradient2009&quot;)"></circle>
        <circle r="25" cx="969.69" cy="501.11" fill="url(&quot;#SvgjsRadialGradient2009&quot;)"></circle>
        <circle r="25" cx="1246.42" cy="-90.31" fill="url(&quot;#SvgjsRadialGradient2009&quot;)"></circle>
        <circle r="25" cx="1239.04" cy="63.81" fill="url(&quot;#SvgjsRadialGradient2009&quot;)"></circle>
        <circle r="25" cx="1275.95" cy="701.05" fill="url(&quot;#SvgjsRadialGradient2009&quot;)"></circle>
        <circle r="25" cx="1439.44" cy="-69.61" fill="url(&quot;#SvgjsRadialGradient2009&quot;)"></circle>
        <circle r="5" cx="108.09" cy="515.98" fill="#8b9ad9"></circle>
        <circle r="5" cx="110.7" cy="647.46" fill="#8b9ad9"></circle>
        <circle r="5" cx="231.67" cy="518.27" fill="#8b9ad9"></circle>
        <circle r="5" cx="239.51" cy="641.55" fill="#8b9ad9"></circle>
        <circle r="5" cx="401.07" cy="688.17" fill="#8b9ad9"></circle>
        <circle r="5" cx="543.96" cy="546.92" fill="#8b9ad9"></circle>
        <circle r="5" cx="526.27" cy="645.77" fill="#8b9ad9"></circle>
        <circle r="5" cx="703.18" cy="678.99" fill="#8b9ad9"></circle>
        <circle r="5" cx="837.01" cy="338.11" fill="#8b9ad9"></circle>
        <circle r="5" cx="800.14" cy="508.31" fill="#8b9ad9"></circle>
        <circle r="5" cx="849.83" cy="682.62" fill="#8b9ad9"></circle>
        <circle r="5" cx="995.68" cy="396.69" fill="#8b9ad9"></circle>
        <circle r="5" cx="966.05" cy="705.44" fill="#8b9ad9"></circle>
        <circle r="5" cx="1158.05" cy="-41.8" fill="#8b9ad9"></circle>
        <circle r="5" cx="1111.81" cy="408.78" fill="#8b9ad9"></circle>
        <circle r="5" cx="1106.42" cy="500.29" fill="#8b9ad9"></circle>
        <circle r="5" cx="1154.26" cy="679.92" fill="#8b9ad9"></circle>
        <circle r="5" cx="1278.87" cy="203.78" fill="#8b9ad9"></circle>
        <circle r="5" cx="1256.11" cy="357.49" fill="#8b9ad9"></circle>
        <circle r="5" cx="1418.66" cy="236.03" fill="#8b9ad9"></circle>
        <circle r="5" cx="1456.08" cy="408.25" fill="#8b9ad9"></circle>
        <circle r="5" cx="1429.45" cy="491.03" fill="#8b9ad9"></circle>
        <circle r="5" cx="1568.37" cy="-109.12" fill="#8b9ad9"></circle>
        <circle r="5" cx="1597.17" cy="74.35" fill="#8b9ad9"></circle>
        <circle r="5" cx="1554.17" cy="202.69" fill="#8b9ad9"></circle>
        <circle r="5" cx="1568.4" cy="348.22" fill="#8b9ad9"></circle>
        <circle r="5" cx="1592.67" cy="508.63" fill="#8b9ad9"></circle>
        <circle r="5" cx="1558.86" cy="645.6" fill="#8b9ad9"></circle>
    </g>
    <defs>
        <mask id="SvgjsMask2007">
            <rect width="1440" height="560" fill="#ffffff"></rect>
        </mask>
        <radialGradient cx="0%" cy="0%" r="1545.06" gradientUnits="userSpaceOnUse" id="SvgjsRadialGradient2008">
            <stop stop-color="rgba(248, 251, 255, 1)" offset="0"></stop>
            <stop stop-color="rgba(230, 230, 230, 1)" offset="1"></stop>
        </radialGradient>
        <radialGradient id="SvgjsRadialGradient2009">
            <stop stop-color="#ffffff" offset="0.1"></stop>
            <stop stop-color="#1735b3" offset="0.2"></stop>
            <stop stop-color="rgba(23, 53, 179, 0)" offset="1"></stop>
        </radialGradient>
    </defs>
</svg>